# xmcd
#
# Track frame offsets:
#	150
#	9425
#	14352
#	29224
#	48493
#	53420
#	64332
#	70532
#	93626
#	127411
#	137358
#	144857
#	159289
#	185539
#	192465
#
# Disc length: 2570
#
# Revision: 1
# Processed by: cddbd v1.5.1PL0 Copyright (c) Steve Scherf et al.
# Submitted via: dBpowerAMP V4.0
# Normalized: r0:TRMNUM
#
DISCID=d10a080f
DTITLE=Yann Tiersien - Le phare
DYEAR=1998
DGENRE=blues
TTITLE0=Le quartier
TTITLE1=La rupture
TTITLE2=Monochrome
TTITLE3=La dispute
TTITLE4=L'arrivée sur l'île
TTITLE5=La noyée
TTITLE6=Le fromveur
TTITLE7=L'homme aux bras ballants
TTITLE8=Sur le fil
TTITLE9=Les jours heureux
TTITLE10=La crise
TTITLE11=Les bras de mer
TTITLE12=La chute
TTITLE13=L'effondrement
TTITLE14=Bonus
EXTD=
EXTT0=
EXTT1=
EXTT2=
EXTT3=
EXTT4=
EXTT5=
EXTT6=
EXTT7=
EXTT8=
EXTT9=
EXTT10=
EXTT11=
EXTT12=
EXTT13=
EXTT14=
PLAYORDER=
